<?xml version="1.0" encoding="utf-8"?>
<!-- Generator: Adobe Illustrator 25.4.1, SVG Export Plug-In . SVG Version: 6.00 Build 0)  -->
<svg version="1.1" id="Layer_1" xmlns="http://www.w3.org/2000/svg" xmlns:xlink="http://www.w3.org/1999/xlink" x="0px" y="0px"
	 viewBox="0 0 32 16" style="enable-background:new 0 0 32 16;" xml:space="preserve">
<style type="text/css">
	.st0{clip-path:url(#SVGID_00000058558809186412618520000016210252956649331363_);}
	.st1{fill:#B9B9B9;}
	.st2{fill:#BFBFBF;}
	.st3{fill:#AFAFAF;}
	.st4{fill:#A4A4A4;}
	.st5{fill:#C4C4C4;}
	.st6{fill:#D51920;}
</style>
<g>
	<defs>
		<path id="SVGID_1_" d="M24,16H8c-4.4,0-8-3.6-8-8v0c0-4.4,3.6-8,8-8h16c4.4,0,8,3.6,8,8v0C32,12.4,28.4,16,24,16z"/>
	</defs>
	<clipPath id="SVGID_00000063632014033364863410000010535040369362556311_">
		<use xlink:href="#SVGID_1_"  style="overflow:visible;"/>
	</clipPath>
	<g style="clip-path:url(#SVGID_00000063632014033364863410000010535040369362556311_);">
		<path class="st1" d="M8,0h16c4.4,0,8,3.6,8,8l0,0c0,4.4-3.6,8-8,8H8c-4.4,0-8-3.6-8-8l0,0C0,3.6,3.6,0,8,0z"/>
		<g>
			<path class="st2" d="M3.3,18.5C1.1,18.5,3.7,9.2,3.7,7l0,0C3.7,4.8,9.8-4.5,12-4.5l10.4,4.2c2.2,0,5.9,5.1,5.9,7.3l0,0
				c0,2.2,2.5,11.5,0.3,11.5H16H3.3z"/>
			<path class="st3" d="M26.8,6.2l3.2,5.6h-6.5L26.8,6.2z"/>
			<path class="st4" d="M7.7,1.8l1.9,3.4H5.8L7.7,1.8z"/>
			<path class="st4" d="M9.6,13.3l1.9,3.4H7.7L9.6,13.3z"/>
		</g>
		<g>
			<path class="st5" d="M16-9l8.6,15l8.6,15H16H-1.3L7.3,6L16-9z"/>
			<path class="st3" d="M27.5,3L34,14.2H21L27.5,3z"/>
			<path class="st4" d="M7.5-2l3.9,6.8H3.6L7.5-2z"/>
			<path class="st4" d="M9.5,13l3.9,6.8H5.6L9.5,13z"/>
		</g>
	</g>
	<g style="clip-path:url(#SVGID_00000063632014033364863410000010535040369362556311_);">
		<polygon class="st6" points="11,3.9 21.3,3.9 21.3,5.2 12.5,5.2 12.5,7.5 20.8,7.5 20.8,8.8 12.5,8.8 12.5,12.3 11,12.3 		"/>
	</g>
</g>
</svg>
