<svg xmlns="http://www.w3.org/2000/svg" width="2000" height="2000" viewBox="0 0 2000 2000">
  <defs>
    <style>
      .cls-1 {
        fill: #2d2b3c;
        stroke: #000;
        stroke-width: 1px;
      }

      .cls-1, .cls-2 {
        fill-rule: evenodd;
      }

      .cls-2 {
        fill: #fff;
      }
    </style>
  </defs>
  <path class="cls-1" d="M200,333H1800c110.46,0,200,89.543,200,200v933.33c0,110.46-89.54,200-200,200H200c-110.457,0-200-89.54-200-200V533C0,422.543,89.543,333,200,333Z"/>
  <path id="_" data-name="?" class="cls-2" d="M995.133,731.423q53.155,0,53.157,102.515,0,75.306-31.33,105.36-31.335,30.071-102.2,31.953V1186.41H1106.51V1076.3q148.08-77.82,148.08-258.815,0-120.234-69.61-191.734T998.93,554.235q-111.375,0-183.844,69.922Q742.617,694.095,737.57,839H936.914q1.875-107.578,58.219-107.578h0ZM941.961,1413.91q31.008,30.675,74.049,30.68,43.665,0,74.36-30.37,30.675-30.375,30.68-73.41,0-44.895-29.75-74.34-29.73-29.445-75.29-29.44-43.035,0-74.049,30.71-31.008,30.69-31,73.07Q910.961,1383.23,941.961,1413.91Z"/>
</svg>
