<?xml version="1.0" encoding="UTF-8" standalone="no"?>
<svg
   xmlns:dc="http://purl.org/dc/elements/1.1/"
   xmlns:cc="http://creativecommons.org/ns#"
   xmlns:rdf="http://www.w3.org/1999/02/22-rdf-syntax-ns#"
   xmlns:svg="http://www.w3.org/2000/svg"
   xmlns="http://www.w3.org/2000/svg"
   xmlns:xlink="http://www.w3.org/1999/xlink"
   xmlns:sodipodi="http://sodipodi.sourceforge.net/DTD/sodipodi-0.dtd"
   xmlns:inkscape="http://www.inkscape.org/namespaces/inkscape"
   version="1.1"
   id="svg42"
   width="900"
   height="900"
   viewBox="0 0 900 900"
   sodipodi:docname="discord.svg"
   inkscape:version="1.0.2-2 (e86c870879, 2021-01-15)">
  <metadata
     id="metadata48">
    <rdf:RDF>
      <cc:Work
         rdf:about="">
        <dc:format>image/svg+xml</dc:format>
        <dc:type
           rdf:resource="http://purl.org/dc/dcmitype/StillImage" />
        <dc:title></dc:title>
      </cc:Work>
    </rdf:RDF>
  </metadata>
  <defs
     id="defs46" />
  <sodipodi:namedview
     pagecolor="#ffffff"
     bordercolor="#FFFFFF"
     borderopacity="1"
     objecttolerance="10"
     gridtolerance="10"
     guidetolerance="10"
     inkscape:pageopacity="0"
     inkscape:pageshadow="2"
     inkscape:window-width="1920"
     inkscape:window-height="1017"
     id="namedview44"
     showgrid="false"
     inkscape:zoom="0.68196521"
     inkscape:cx="513.58475"
     inkscape:cy="527.68441"
     inkscape:window-x="1592"
     inkscape:window-y="-8"
     inkscape:window-maximized="1"
     inkscape:current-layer="g50" />
  <g
     inkscape:groupmode="layer"
     inkscape:label="Image"
     id="g50">
    <path
       style="fill:#FFFFFF;stroke-width:1.17836"
       d="M 233.60271,747.04699 C 216.58589,744.50897 186.68248,737.75376 169.67572,732.60582 97.595048,710.78702 43.825464,674.89887 16.689568,630.49625 l -4.240157,-6.93819 0.0049,-16.41813 C 12.47155,548.39421 24.882865,465.64304 45.130613,389.27359 69.507854,297.32878 106.01146,211.14425 130.9538,186.64624 c 11.67478,-11.46682 44.97227,-30.5157 73.3509,-41.9627 35.37269,-14.26818 92.05363,-28.01801 126.09218,-30.58781 10.99033,-0.82974 14.86677,0.42557 20.07019,6.49932 2.9232,3.41214 8.79604,18.35398 7.6546,19.47507 -0.31354,0.30796 -8.26049,2.08764 -17.6599,3.95487 -52.99705,10.52802 -101.96999,28.27282 -141.80037,51.37974 -10.58355,6.13987 -13.09773,8.69025 -15.00459,15.22064 -3.66015,12.53485 9.82361,25.75956 22.59587,22.16178 2.15151,-0.60605 7.44653,-3.15604 11.7667,-5.66664 52.17299,-30.31953 123.00565,-50.31073 199.15866,-56.20879 88.17739,-6.82935 195.53048,15.95837 264.80262,56.2094 4.32017,2.51027 9.61519,5.05998 11.7667,5.66603 12.77226,3.59778 26.25602,-9.62693 22.59588,-22.16178 -1.9365,-6.63186 -4.47289,-9.12542 -16.14542,-15.87269 -30.40954,-17.57815 -68.05264,-32.68305 -107.51825,-43.14342 -11.80499,-3.12891 -48.10514,-11.08043 -50.58421,-11.08043 -2.92011,0 4.94573,-18.04932 9.62401,-22.08375 5.37286,-4.63339 10.37891,-5.37758 24.77879,-3.68357 52.2686,6.14889 111.34656,23.43329 150.53798,44.04279 16.80778,8.83868 36.03643,21.9973 43.10919,29.50063 30.08038,31.91163 71.47231,137.9415 95.32211,244.17784 13.31122,59.29336 22.06477,128.5409 22.07835,174.65716 l 0.005,16.41813 -4.24788,6.93819 c -23.52151,38.4185 -66.20782,70.11437 -124.16363,92.1953 -34.80511,13.2606 -77.70333,23.63806 -106.55902,25.77758 -12.71933,0.94308 -17.50802,-0.25546 -22.61932,-5.66132 -3.06588,-3.24254 -32.97969,-43.21742 -35.34285,-47.2299 -0.57151,-0.97037 1.32844,-2.00646 6.04536,-3.29665 13.25918,-3.62672 36.73471,-11.42104 50.87167,-16.89035 32.23723,-12.47194 73.66492,-35.64678 86.81998,-48.56751 8.13926,-7.99427 7.95251,-19.01535 -0.44856,-26.46999 -8.42581,-7.47663 -16.43572,-6.72019 -29.2996,2.76697 -18.61912,13.73168 -52.60144,31.22226 -80.25725,41.30812 -98.06946,35.7652 -221.21045,39.7717 -323.86762,10.53732 -43.85478,-12.48882 -85.73594,-31.74864 -113.56699,-52.22585 -9.11339,-6.70536 -14.84702,-8.52728 -21.38981,-6.79687 -5.67633,1.50124 -13.12945,9.16187 -13.38638,13.75908 -0.60348,10.79789 1.68003,14.92437 12.87507,23.26625 30.51522,22.73815 77.56464,44.24739 128.53052,58.75937 5.93955,1.69122 8.39424,2.90315 7.82743,3.86458 -2.00228,3.39624 -32.03396,43.77479 -34.8057,46.79736 -6.29534,6.86506 -14.8953,7.94863 -36.96326,4.65725 z m 105.71,-205.4199 c 55.04911,-12.74485 72.0403,-91.10222 28.36648,-130.81619 -25.14892,-22.8687 -60.26983,-21.91578 -84.79147,2.30064 -15.18358,14.99458 -22.44487,33.00158 -22.40994,55.57352 0.0366,23.69789 8.20929,43.03155 24.42203,57.77429 15.59572,14.18167 35.14013,19.62973 54.4129,15.16774 z m 247.13684,0.0399 c 38.73833,-8.97077 62.40846,-53.90268 50.30138,-95.48476 -7.94596,-27.29063 -28.99557,-47.11221 -54.47508,-51.29703 -31.20214,-5.12473 -62.55967,17.75729 -72.3559,52.79908 -2.85499,10.21255 -2.83898,31.55398 0.0315,42.02141 6.93579,25.29147 27.4119,46.45165 50.19007,51.86684 9.1652,2.1789 17.18248,2.20768 26.30796,0.0945 z"
       id="path54" />
  </g>
</svg>
