<?xml version="1.0" ?><svg fill="white" contentScriptType="text/ecmascript" contentStyleType="text/css" enable-background="new 0 0 2048 2048" height="2048px" id="Layer_1" preserveAspectRatio="xMidYMid meet" version="1.1" viewBox="0.0 0 1664.0 2048" width="1664.0px" xml:space="preserve" xmlns="http://www.w3.org/2000/svg" xmlns:xlink="http://www.w3.org/1999/xlink" zoomAndPan="magnify"><path d="M1280,1472c0-17.333-6.333-32.333-19-45s-27.667-19-45-19s-32.333,6.333-45,19s-19,27.667-19,45s6.333,32.333,19,45  s27.667,19,45,19s32.333-6.333,45-19S1280,1489.333,1280,1472z M1536,1472c0-17.333-6.333-32.333-19-45s-27.667-19-45-19  s-32.333,6.333-45,19s-19,27.667-19,45s6.333,32.333,19,45s27.667,19,45,19s32.333-6.333,45-19S1536,1489.333,1536,1472z M1664,1248  v320c0,26.667-9.333,49.333-28,68s-41.333,28-68,28H96c-26.667,0-49.333-9.333-68-28s-28-41.333-28-68v-320  c0-26.667,9.333-49.333,28-68s41.333-28,68-28h465l135,136c38.667,37.333,84,56,136,56s97.333-18.667,136-56l136-136h464  c26.667,0,49.333,9.333,68,28S1664,1221.333,1664,1248z M1339,679c11.333,27.333,6.667,50.667-14,70l-448,448  c-12,12.667-27,19-45,19s-33-6.333-45-19L339,749c-20.667-19.333-25.333-42.667-14-70c11.333-26,31-39,59-39h256V192  c0-17.333,6.333-32.333,19-45s27.667-19,45-19h256c17.333,0,32.333,6.333,45,19s19,27.667,19,45v448h256  C1308,640,1327.667,653,1339,679z"/></svg>