<?xml version="1.0" encoding="UTF-8" standalone="no"?>
<svg
   xmlns:dc="http://purl.org/dc/elements/1.1/"
   xmlns:cc="http://creativecommons.org/ns#"
   xmlns:rdf="http://www.w3.org/1999/02/22-rdf-syntax-ns#"
   xmlns:svg="http://www.w3.org/2000/svg"
   xmlns="http://www.w3.org/2000/svg"
   xmlns:sodipodi="http://sodipodi.sourceforge.net/DTD/sodipodi-0.dtd"
   xmlns:inkscape="http://www.inkscape.org/namespaces/inkscape"
   version="1.1"
   id="svg28"
   width="1200"
   height="1200"
   viewBox="0 0 1200 1200"
   sodipodi:docname="twitter.svg"
   inkscape:version="1.0.2-2 (e86c870879, 2021-01-15)">
  <metadata
     id="metadata34">
    <rdf:RDF>
      <cc:Work
         rdf:about="">
        <dc:format>image/svg+xml</dc:format>
        <dc:type
           rdf:resource="http://purl.org/dc/dcmitype/StillImage" />
        <dc:title></dc:title>
      </cc:Work>
    </rdf:RDF>
  </metadata>
  <defs
     id="defs32" />
  <sodipodi:namedview
     pagecolor="#ffffff"
     bordercolor="#666666"
     borderopacity="1"
     objecttolerance="10"
     gridtolerance="10"
     guidetolerance="10"
     inkscape:pageopacity="0"
     inkscape:pageshadow="2"
     inkscape:window-width="1920"
     inkscape:window-height="1017"
     id="namedview30"
     showgrid="false"
     inkscape:zoom="0.51147391"
     inkscape:cx="344.13177"
     inkscape:cy="682.91946"
     inkscape:window-x="1592"
     inkscape:window-y="-8"
     inkscape:window-maximized="1"
     inkscape:current-layer="g36" />
  <g
     inkscape:groupmode="layer"
     inkscape:label="Image"
     id="g36">
    <path
       style="fill:#FFF"
       d="m 364.79874,1084.2883 c -39.7642,-0.7115 -75.6994,-4.7705 -122.5,-13.837 -31.4776,-6.0981 -45.9321,-9.8231 -73.2761,-18.8836 -7.5768,-2.5106 -14.4458,-4.5647 -15.2644,-4.5647 -1.4763,0 -28.4908,-10.2144 -31.558,-11.9324 -2.8234,-1.5814 -18.8879,-8.0676 -19.9811,-8.0676 -0.9237,0 -33.197304,-15.6387 -39.920404,-19.3442 -1.375,-0.7578 -5.65,-2.8412 -9.5,-4.63 -3.85,-1.7887 -9.25,-4.71618 -12,-6.50538 -7.4768,-4.86431 -17.4745,-10.52046 -18.5958,-10.52046 -0.5438,0 -1.5321,-0.49073 -2.1964,-1.09051 -0.6643,-0.59978 -4.3578,-3.11359 -8.2078,-5.58624 l -7,-4.49574 7,0.584 c 54.4497,4.5426 90.270504,2.91468 142.500004,-6.4761 28.9365,-5.20274 34.7178,-6.79852 80,-22.08178 20.1399,-6.79748 57.199,-24.49326 76.8234,-36.68337 4.5779,-2.84365 8.7289,-5.17026 9.2246,-5.17026 1.1633,0 22.8931,-14.78401 25.231,-17.16606 0.9784,-0.99692 3.227,-2.56137 4.9968,-3.47655 1.7697,-0.91519 6.0988,-3.845 9.6201,-6.51069 l 6.4023,-4.8467 h -4.4052 c -13.4315,0 -49.8105,-6.20541 -65.893,-11.23982 -25.8104,-8.07958 -54.4092,-23.49684 -78.779,-42.46881 -10.2684,-7.99398 -34.221,-31.63413 -34.221,-33.77462 0,-0.86873 -0.6021,-1.81058 -1.3381,-2.09298 -0.7359,-0.2824 -3.7408,-3.75577 -6.6776,-7.71861 -2.9367,-3.96284 -6.5735,-8.82139 -8.0818,-10.79678 -1.5082,-1.97539 -4.8047,-7.46999 -7.3255,-12.21022 -2.5208,-4.74023 -5.7069,-10.2743 -7.0802,-12.29793 -1.3732,-2.02363 -2.4968,-4.07119 -2.4968,-4.55015 0,-0.47895 -1.8,-4.51594 -4,-8.97108 -2.2,-4.45515 -4.0003,-8.83798 -4.0005,-9.73963 -3e-4,-0.90165 -0.9003,-4.0067 -2,-6.9001 -2.6491,-6.96977 -2.579,-7.60155 0.7505,-6.76579 13.104,3.28932 49.871,4.67865 68.25,2.57899 6.963,-0.79547 21.26,-3.13378 34.868,-5.70276 3.4779,-0.65658 2.2651,-1.2678 -7.5353,-3.79775 -11.0627,-2.8558 -27.0662,-8.45329 -35.6722,-12.47693 -3.6174,-1.69126 -7.1694,-3.07503 -7.8933,-3.07503 -1.8317,0 -25.459,-13.44273 -29.9586,-17.0449 -2.0302,-1.6253 -4.1182,-2.9551 -4.64,-2.9551 -1.547,0 -13.2773,-8.95607 -18.6686,-14.25339 -2.75,-2.70207 -6.1379,-5.51051 -7.5287,-6.24098 -1.3908,-0.73047 -6.1867,-5.30556 -10.6575,-10.16688 -4.4709,-4.86131 -10.4051,-11.27696 -13.1872,-14.25699 -2.7821,-2.98004 -5.7281,-6.82956 -6.5467,-8.55451 -0.8185,-1.72494 -2.7258,-4.46173 -4.2385,-6.08175 -2.780304,-2.97768 -16.335804,-23.89371 -16.348104,-25.22497 0,-0.39629 -2.0417,-4.77053 -4.529,-9.72053 -7.0503,-14.03069 -13.3969,-30.19113 -15.5127,-39.5 -6.6523,-29.26826 -8.5332,-41.64794 -9.2301,-60.75 -0.2548,-6.98243 -0.026,-9.25 0.931,-9.25 0.6976,0 5.8987,2.37448 11.5579,5.27662 18.833,9.65779 28.8168,13.22558 50.789604,18.14997 15.4612,3.46509 47,7.6082 47,6.1742 0,-0.63281 -9.3755,-7.22647 -12.7746,-8.98422 -1.6573,-0.857 -4.2984,-2.82445 -5.8693,-4.37212 -1.5709,-1.54766 -6.6811,-6.3671 -11.3561,-10.70986 -10.786,-10.01945 -29.5677,-30.82582 -31.5169,-34.91441 -0.8182,-1.7161 -3.3703,-5.59518 -5.671504,-8.62018 -6.3913,-8.40173 -11.8053,-18.0772 -19.025,-34 -9.7969,-21.60682 -12.8598,-30.58231 -15.868,-46.5 -0.6236,-3.3 -1.9985,-10.5 -3.0552,-16 -1.3586,-7.07113 -2.0956,-16.58995 -2.5164,-32.5 -0.6393,-24.16652 0.6325,-39.56367 4.6938,-56.82896 1.0775,-4.58092 1.9592,-9.39581 1.9592,-10.69974 0,-3.92656 8.3825,-27.27934 14.1821,-39.50981 2.9893,-6.30382 6.2656,-13.37658 7.2809,-15.71724 2.9985,-6.91297 3.6964,-6.95168 9.1388,-0.50691 2.6766,3.16946 5.663704,6.35248 6.638004,7.07336 0.9744,0.72089 2.436,2.59551 3.248,4.16581 0.8121,1.57031 5.7595,7.11731 10.9943,12.32667 5.2348,5.20936 9.5179,9.87658 9.5179,10.3716 0,0.96467 30.5266,30.7017 35.5109,34.59235 1.644,1.28329 5.9141,5.14019 9.4891,8.5709 3.575,3.43071 8.6375,7.64641 11.25,9.36823 2.6125,1.72181 4.75,3.43214 4.75,3.80074 0,0.81393 13.959,11.93944 26.9679,21.49374 5.2427,3.85041 11.9641,8.93591 14.9365,11.30112 2.9725,2.36521 6.7975,4.88685 8.5,5.60363 1.7026,0.71678 5.2815,2.97776 7.9532,5.02439 4.9223,3.77074 16.6096,11.45735 22.1996,14.60042 10.3816,5.83727 20.0963,11.59018 21.0392,12.45919 0.6031,0.55578 4.2031,2.54039 8,4.41024 3.797,1.86985 8.0286,3.98858 9.4036,4.70828 19.3911,10.14967 38.355,19.39199 39.7895,19.39199 0.9957,0 2.238,0.40626 2.7605,0.90281 2.2623,2.14998 41.0424,17.88934 47.2143,19.16248 2.3453,0.4838 5.0453,1.29692 6,1.80693 5.2226,2.79017 55.0875,18.12778 58.9361,18.12778 1.3404,0 6.7937,1.09662 12.1184,2.43694 19.1695,4.82533 46.849,9.97701 70.3491,13.09331 12.2062,1.61864 42.2836,4.43741 47.5629,4.45747 l 3.2309,0.0123 -0.5426,-4.75 c -0.2985,-2.6125 -1.3024,-9.25 -2.2309,-14.75 -2.4366,-14.43298 -2.3697,-56.09721 0.1188,-74 2.6999,-19.42381 7.3945,-37.15468 13.3124,-50.27964 1.3093,-2.90379 2.3806,-5.5041 2.3806,-5.77845 0,-0.63314 6.1992,-14.23997 9.7258,-21.34721 1.4751,-2.97292 5.9652,-10.26321 9.9781,-16.20064 4.0128,-5.93745 7.2961,-11.18271 7.2961,-11.65616 0,-0.47344 0.8864,-1.8123 1.9699,-2.97526 1.0834,-1.16295 5.2935,-6.0853 9.3557,-10.93856 10.1529,-12.13003 27.1962,-28.37521 39.1744,-37.33992 5.5,-4.1163 10.45,-8.01521 11,-8.66424 0.55,-0.64904 5.05,-3.29349 10,-5.87656 4.95,-2.58307 9.2274,-5.05047 9.5053,-5.48309 0.8269,-1.28701 27.28565,-13.96029 29.14575,-13.96029 0.9418,0 5.4556,-1.3862 10.0307,-3.08045 11.5917,-4.29274 32.0907,-9.38303 46.3182,-11.50172 16.2942,-2.42646 48.4781,-2.42845 64.5,-0.004 27.8937,4.22093 58.2867,13.86586 79.4502,25.21275 7.7274,4.1431 14.1999,7.94702 14.3832,8.45315 0.1833,0.50614 0.9912,0.92025 1.7952,0.92025 1.5273,0 15.3344,8.97167 18.227,11.84371 3.2071,3.18428 10.858,9.15629 11.7304,9.15629 0.484,0 5.4881,4.59247 11.12033,10.20548 l 10.24028,10.20549 17.2769,-4.28439 c 14.9402,-3.70498 39.7549,-11.25096 60.2767,-18.32977 3.3,-1.1383 9.2417,-3.58326 13.2038,-5.43323 3.962,-1.84997 7.4828,-3.36358 7.8238,-3.36358 0.341,0 5.097,-2.25 10.5688,-5 5.4719,-2.75 10.4709,-5 11.109,-5 1.5451,0 26.3694,-13.59837 30.7235,-16.82983 2.9835,-2.21433 3.3309,-2.29322 2.675,-0.60749 -0.4147,1.06552 -1.4263,4.54475 -2.2481,7.73162 -1.8003,6.98141 -9.3814,23.45789 -16.0472,34.87651 -2.6743,4.58106 -5.3644,9.48166 -5.978,10.89024 -0.9688,2.22429 -13.1645,18.9139 -18.866,25.81792 -15.9284,19.28799 -31.4961,33.38814 -52.1985,47.27797 -5.6464,3.78829 -10.2661,7.09148 -10.2661,7.34043 0,0.24894 1.2375,0.24368 2.75,-0.0117 1.5125,-0.25539 9.725,-1.61441 18.25,-3.02004 13.9155,-2.29444 44.4793,-9.10875 59,-13.15423 8.5912,-2.3935 35.354,-12.03845 42.5513,-15.3349 3.5743,-1.63708 7.1076,-2.9765 7.8516,-2.9765 0.7441,0 2.9828,-0.68104 4.975,-1.51342 3.848,-1.60783 4.4059,-1.44354 2.3498,0.69199 -0.6997,0.72679 -5.4938,7.17143 -10.6534,14.32143 -10.1534,14.07035 -15.7934,21.30033 -20.2819,26 -1.5759,1.65 -5.0572,5.7 -7.7362,9 -9.2587,11.40501 -41.9169,43.42773 -53.7544,52.70853 -2.3091,1.81031 -9.3798,7.34147 -15.7128,12.29147 l -11.5146,9 -0.041,30 c -0.068,49.39151 -3.3465,82.52669 -13.0608,132 -2.1599,11 -4.4115,22.61938 -5.0035,25.82085 -1.0893,5.8902 -7.375,28.27065 -12.8293,45.67915 -2.8428,9.07325 -4.411,14.20923 -7.5573,24.75 -1.6035,5.3722 -7.9136,22.20831 -10.0258,26.75 -0.7674,1.65 -2.7754,6.4838 -4.4622,10.74179 -1.6869,4.25798 -3.4679,8.53298 -3.9578,9.5 -0.49,0.96701 -1.4553,3.55821 -2.1452,5.75821 -0.6898,2.2 -5.245,12.09452 -10.1227,21.98783 -4.8778,9.8933 -8.86861,18.37656 -8.86861,18.85169 0,0.47512 -3.996,7.9056 -8.88,16.51217 -4.8839,8.60657 -10.4341,18.57331 -12.3337,22.14831 -1.8996,3.575 -7.1286,11.99349 -11.62,18.70777 -4.4918,6.71429 -8.1666,12.84669 -8.1666,13.62757 0,0.78089 -0.683,1.9866 -1.5177,2.67936 -0.8347,0.69276 -4.486,5.54675 -8.114,10.78662 -3.628,5.23988 -7.445,10.43803 -8.4823,11.55144 -1.0373,1.11341 -1.886,2.4161 -1.886,2.89486 0,1.02799 -10.206,14.32102 -15.9331,20.7524 -2.204,2.475 -4.0207,4.97729 -4.0371,5.56065 -0.016,0.58336 -4.1062,5.53336 -9.0885,11 -4.9822,5.46664 -9.7939,11.06435 -10.6924,12.43935 -0.8986,1.375 -5.932,6.89634 -11.1852,12.26964 -5.2533,5.3733 -9.7792,10.37524 -10.0576,11.11543 -0.4601,1.22315 -9.5468,10.00851 -25.4592,24.61493 -3.2954,3.025 -9.4115,8.7625 -13.5912,12.75 -4.1797,3.9875 -7.9243,7.25 -8.3214,7.25 -0.8284,0 -12.1779,9.31587 -14.5522,11.94467 -2.1748,2.40791 -9.6776,8.05222 -10.7261,8.06918 -0.4709,0.008 -3.7811,2.50976 -7.3561,5.56031 -8.3308,7.10862 -44.2144,31.44279 -54,36.61963 -4.12495,2.18223 -8.17495,4.55867 -8.99995,5.28107 -2.4171,2.1164 -19.2768,11.37578 -28,15.37738 -2.475,1.1354 -6.525,3.1859 -9,4.5567 -8.6539,4.7931 -29.1681,14.5911 -30.5495,14.5911 -0.7664,0 -3.9938,1.1793 -7.172,2.6206 -11.0749,5.0225 -29.8311,12.5485 -37.2785,14.9581 -9.4085,3.0441 -40.3507,12.6464 -49,15.2061 -6.9205,2.048 -25.567,6.3645 -35.5,8.2179 -3.3,0.6158 -14.325,2.686 -24.5,4.6006 -44.2498,8.3262 -96.881,12.5519 -145.5,11.682 z"
       id="path40" />
  </g>
</svg>
