<?xml version="1.0" standalone="no"?>
<!DOCTYPE svg PUBLIC "-//W3C//DTD SVG 20010904//EN"
 "http://www.w3.org/TR/2001/REC-SVG-20010904/DTD/svg10.dtd">
<svg version="1.0" xmlns="http://www.w3.org/2000/svg"
 width="700.000000pt" height="700.000000pt" viewBox="0 0 700.000000 700.000000"
 preserveAspectRatio="xMidYMid meet">
<metadata>
Created by potrace 1.11, written by Peter Selinger 2001-2013
</metadata>
<g transform="translate(0.000000,700.000000) scale(0.100000,-0.100000)"
fill="#000000" stroke="none">
<path d="M4370 6204 c-217 -25 -293 -51 -575 -192 -268 -134 -336 -161 -420
-169 -54 -5 -70 -2 -121 22 -178 84 -648 151 -998 143 -173 -5 -202 -8 -307
-36 -219 -58 -554 -211 -752 -342 -124 -82 -290 -237 -373 -346 -139 -185
-261 -447 -323 -689 -72 -288 -50 -582 65 -877 137 -351 457 -860 767 -1221
130 -152 376 -399 527 -530 499 -432 1499 -1041 2058 -1253 134 -51 199 -41
334 49 456 304 1324 1445 1777 2337 191 375 321 757 376 1105 23 142 31 438
15 577 -33 306 -153 591 -371 881 -264 352 -541 481 -1134 527 -146 11 -491
20 -545 14z"/>
</g>
</svg>
